<?xml version="1.0" encoding="UTF-8" standalone="no"?><!-- Generator: Gravit.io --><svg xmlns="http://www.w3.org/2000/svg" xmlns:xlink="http://www.w3.org/1999/xlink" style="isolation:isolate" viewBox="0 0 500 500" width="500pt" height="500pt"><defs><clipPath id="_clipPath_hpNvdOTEAP3TQDEnQl0Mtll1jfD7SQXa"><rect width="500" height="500"/></clipPath></defs><g clip-path="url(#_clipPath_hpNvdOTEAP3TQDEnQl0Mtll1jfD7SQXa)"><path d="M 35 0 L 465 0 C 484.317 0 500 15.683 500 35 L 500 465 C 500 484.317 484.317 500 465 500 L 35 500 C 15.683 500 0 484.317 0 465 L 0 35 C 0 15.683 15.683 0 35 0 Z" style="stroke:none;fill:#FFFFFF;stroke-miterlimit:10;"/><g><path d=" M 58.945 282.106 C 60.77 286.949 63.296 291.089 66.525 294.528 C 69.753 297.966 73.578 300.598 77.998 302.423 C 82.42 304.247 87.227 305.16 92.42 305.16 C 97.473 305.16 102.21 304.212 106.631 302.317 C 111.052 300.422 114.912 297.755 118.21 294.317 C 121.508 290.878 124.07 286.773 125.895 282.001 C 127.72 277.229 128.632 271.896 128.632 266.001 L 128.632 175.051 L 150.737 175.051 L 150.737 322.423 L 128.842 322.423 L 128.842 308.738 C 123.93 313.931 118.14 317.931 111.473 320.739 C 104.806 323.546 97.613 324.949 89.894 324.949 C 82.034 324.949 74.7 323.581 67.893 320.844 C 61.086 318.107 55.191 314.212 50.208 309.159 C 45.226 304.106 41.296 298.037 38.419 290.949 C 35.541 283.861 34.103 275.966 34.103 267.264 L 34.103 175.051 L 56.208 175.051 L 56.208 266.001 C 56.208 271.896 57.121 277.264 58.945 282.106 Z " fill="rgb(1,2,2)"/><path d=" M 188.842 175.051 L 188.842 228.736 C 193.754 223.824 199.439 219.929 205.895 217.052 C 212.351 214.174 219.369 212.736 226.948 212.736 C 234.808 212.736 242.176 214.209 249.054 217.157 C 255.931 220.104 261.896 224.104 266.949 229.157 C 272.002 234.21 276.002 240.175 278.949 247.052 C 281.897 253.93 283.37 261.229 283.37 268.948 C 283.37 276.667 281.897 283.931 278.949 290.737 C 276.002 297.545 272.002 303.475 266.949 308.527 C 261.896 313.58 255.931 317.58 249.054 320.528 C 242.176 323.475 234.808 324.949 226.948 324.949 C 219.369 324.949 212.316 323.51 205.79 320.633 C 199.263 317.756 193.543 313.861 188.631 308.948 L 188.631 322.422 L 167.578 322.422 L 167.578 175.051 L 188.842 175.051 Z  M 191.263 283.474 C 193.157 287.966 195.789 291.896 199.158 295.265 C 202.526 298.633 206.456 301.3 210.947 303.265 C 215.439 305.23 220.281 306.212 225.474 306.212 C 230.527 306.212 235.299 305.23 239.79 303.265 C 244.282 301.3 248.176 298.634 251.475 295.265 C 254.773 291.897 257.405 287.966 259.37 283.474 C 261.335 278.983 262.317 274.141 262.317 268.948 C 262.317 263.755 261.335 258.877 259.37 254.316 C 257.405 249.754 254.773 245.789 251.475 242.421 C 248.176 239.053 244.282 236.421 239.79 234.526 C 235.299 232.632 230.527 231.684 225.474 231.684 C 220.422 231.684 215.65 232.631 211.158 234.526 C 206.667 236.421 202.737 239.053 199.368 242.421 C 196 245.789 193.333 249.754 191.368 254.316 C 189.404 258.877 188.421 263.755 188.421 268.948 C 188.421 274.141 189.368 278.983 191.263 283.474 Z " fill="rgb(1,2,2)"/><path d=" M 295.368 247.263 C 298.175 240.526 302.036 234.597 306.948 229.474 C 311.859 224.351 317.685 220.316 324.422 217.368 C 331.159 214.421 338.457 212.947 346.317 212.947 C 354.037 212.947 361.195 214.351 367.792 217.158 C 374.388 219.965 380.072 223.86 384.844 228.842 C 389.616 233.825 393.336 239.72 396.002 246.527 C 398.669 253.334 400.002 260.738 400.002 268.738 L 400.002 275.686 L 312.632 275.686 C 313.334 280.037 314.738 284.072 316.843 287.791 C 318.949 291.51 321.58 294.739 324.738 297.475 C 327.896 300.213 331.475 302.353 335.475 303.897 C 339.475 305.441 343.72 306.213 348.212 306.213 C 360.985 306.213 371.301 300.949 379.161 290.423 L 394.529 301.791 C 389.196 308.949 382.599 314.564 374.74 318.634 C 366.879 322.704 358.037 324.739 348.213 324.739 C 340.212 324.739 332.739 323.335 325.791 320.528 C 318.843 317.722 312.808 313.791 307.685 308.738 C 302.563 303.685 298.527 297.755 295.58 290.949 C 292.633 284.142 291.159 276.737 291.159 268.737 C 291.158 261.159 292.562 254 295.368 247.263 Z  M 324.948 238.947 C 318.983 243.93 315.018 250.562 313.053 258.842 L 378.529 258.842 C 376.704 250.562 372.809 243.93 366.844 238.947 C 360.879 233.965 353.896 231.474 345.896 231.474 C 337.896 231.474 330.913 233.965 324.948 238.947 Z " fill="rgb(1,2,2)"/><path d=" M 439.792 241.368 C 435.301 246.28 433.055 252.947 433.055 261.369 L 433.055 322.423 L 411.791 322.423 L 411.791 215.052 L 432.844 215.052 L 432.844 228.316 C 435.511 223.965 438.984 220.526 443.265 217.999 C 447.546 215.473 452.634 214.209 458.529 214.209 L 465.897 214.209 L 465.897 233.999 L 457.055 233.999 C 450.038 234 444.283 236.456 439.792 241.368 Z " fill="rgb(1,2,2)"/></g></g></svg>